<svg enable-background="new 0 0 2048 2048" viewBox="0 0 2048 2048" xmlns="http://www.w3.org/2000/svg"><g fill="#9ece9b"><path d="m1822.1 782.5c-3.9 166.2 261.2 596.5-87.2 578s-708.6 88.6-834.2 339.9-741.6-178.4-764.1-378.4c-31.3-280.1 142.4-866.2 443.8-737.4 199.3 85.4 406.4-70.1 524.2-185.4 110.7-108.5 269.8-153 419.9-114.6 155.2 39.9 305.8 164.1 297.6 497.9z"/><circle cx="1873.6" cy="1407.5" r="13.1"/><circle cx="1779.3" cy="1485.3" r="21.9"/><circle cx="1830.6" cy="1490" r="18.4"/><circle cx="176.9" cy="610.1" r="13.1"/><circle cx="262.7" cy="522.9" r="21.9"/><circle cx="211.2" cy="523.6" r="18.4"/></g><path d="m272.8 678.4c20.5-44.6 45-87.3 73.5-127.9 63-89.9 142.5-165.2 236.2-223.9 101.7-63.7 213.3-103.6 331.6-118.5 56.7-7.2 114.4-8.4 171.5-3.5 19.3 1.6 38.7 4 57.9 7 59.1 9.2 96.4 68.7 79.2 126.1l-.7 2.2c-14.2 47.4-61.3 76.8-110.2 69.3-146.1-22.5-296.5 7.8-423.2 87.2-289.5 181-377.6 564.1-196.4 853.6 87.8 140.3 225 237.9 386.3 275s327.3 9.2 467.6-78.7c81.2-50.9 148.7-118.8 198.2-199.1 26-42.1 78.9-59 124.2-39l2.1.9c54.9 24.1 75.9 91.1 44.5 142.2-65.7 106.8-155.1 197-262.9 264.5-93.7 58.7-196.2 97.3-304.6 114.7-104.6 16.8-210.3 13.2-314-10.6s-200.3-66.8-287.1-127.6c-89.9-63-165.2-142.5-223.9-236.2s-97.3-196.2-114.7-304.6c-16.8-104.6-13.2-210.3 10.6-314 12.9-55.1 31-108.3 54.3-159.1z" fill="#d6d6d6"/><path d="m1019.9 1843.7c-49.1 0-98.1-4.4-146.9-13.3-108-19.7-209.6-60.4-302.1-121.1-100.4-65.9-183.2-150.6-246.2-251.8-30.2-48.5-55.4-100.5-74.9-154.3-6.6-18.3-12.6-36.8-17.9-55.5-16.3-57.6 22.2-116.3 81.5-124.6l2.2-.3c49-6.9 95.4 23.6 109 71.2 40.7 142 131 266 256.1 348 285.6 187.4 670.5 107.4 857.9-178.2 90.8-138.4 122.2-303.8 88.6-465.8s-128.4-301.3-266.8-392c-80.2-52.6-170-85.5-263.7-97-49.2-6-86.5-47-87.3-96.6v-2.3c-1-59.9 51.1-107.1 110.6-99.8 124.4 15.1 243.8 58.6 350.2 128.4 92.5 60.7 170.3 137.7 231.4 228.9 59 88.1 99.8 185.5 121.5 289.7 21.6 104.2 23 209.9 3.9 314.1-19.7 108-60.4 209.6-121.1 302.1s-137.7 170.3-228.9 231.4c-88.1 59-185.5 99.8-289.7 121.5-55.6 11.5-111.5 17.3-167.4 17.3z" fill="#c43e3b"/><path d="m830.3 823.7h-286v140.5h93.5v-47h72l-144.5 296h109.4l155.6-312.3z" fill="#202020"/><path d="m1067.1 984.8c-27.2-22.6-60-34.1-97.3-34.1-10.4 0-20.5 1.1-30 3.3v-37.3h147.5v-73.5h-20v-19.9h-221v195.8l40.9 44.2 13.7-7.5c17.2-9.4 34.7-14 53.7-14 18 0 32.1 3.9 43.3 12 9.4 6.8 13.5 15.5 13.5 28.3 0 16.6-6.6 23.5-12.3 27.6-10.3 7.5-21.3 11.2-33.7 11.2-14 0-26.4-2.5-37.9-7.6-17.4-7.7-22.2-11.1-23.2-12-4.5-3.7-7.4-6.3-9.4-8.2l-16.5-16.5-54.9 74.9 10.8 12.1c31.9 35.6 74.7 53.7 127.4 53.7 40.9 0 76-12.9 104.4-38.4 29-26 43.6-59.2 43.6-98.7.1-39.7-14.3-71.8-42.6-95.4z" fill="#202020"/><path d="m1409.9 1017.6c-22.6 0-42.3 6.9-58.9 20.6l157.1-214.5h-114.1l-93.9 128.2c4.4-11.5 6.6-24 6.6-37.2 0-27.1-9-50.6-26.8-69.9-18.2-19.7-41.3-29.7-68.5-29.7s-50.4 10.1-68.7 29.9c-18 19.5-27.1 43.1-27.1 70.1 0 27.1 9 50.6 26.8 69.9 18.3 19.7 41.3 29.7 68.5 29.7 22 0 41.3-6.6 57.6-19.6l-159.7 218.1h114.1l98.4-134.4c-4.8 12-7.2 24.9-7.2 38.8 0 27.1 9 50.6 26.8 69.9 18.3 19.7 41.3 29.7 68.5 29.7s50.4-10.1 68.7-29.9c18-19.5 27.1-43.1 27.1-70.1 0-27.1-9-50.6-26.8-69.9-18.2-19.7-41.3-29.7-68.5-29.7zm9.3 101.5c0 5.5-1.2 9.7-3.8 13l-.1.1c-1.8 2.4-2.8 2.5-4.4 2.5-1.2 0-2.8 0-5.4-3.1-1.7-2-3.9-5.6-3.9-12.5 0-5.5 1.2-9.7 3.7-13 2.1-2.6 3.2-2.6 4.6-2.6 1.2 0 2.8 0 5.4 3.1 1.7 2 3.9 5.6 3.9 12.5zm-199.5-203.5c0 5.5-1.2 9.7-3.8 13l-.1.1c-1.8 2.4-2.8 2.5-4.4 2.5-1.2 0-2.8 0-5.4-3.1-1.7-2-3.9-5.6-3.9-12.5 0-5.5 1.2-9.7 3.8-13 2.1-2.6 3.2-2.6 4.6-2.6 1.2 0 2.8 0 5.4 3.1 1.6 2 3.8 5.6 3.8 12.5z" fill="#202020"/></svg>