<svg enable-background="new 0 0 2048 2048" viewBox="0 0 2048 2048" xmlns="http://www.w3.org/2000/svg"><path d="m1822.1 782.5c-3.9 166.2 261.2 596.5-87.2 578s-708.6 88.6-834.2 339.9-741.6-178.4-764.1-378.4c-31.3-280.1 142.4-866.2 443.8-737.4 199.3 85.4 406.4-70.1 524.2-185.4 110.7-108.5 269.8-153 419.9-114.6 155.2 39.9 305.8 164.1 297.6 497.9z" fill="#c43e3b"/><circle cx="1873.6" cy="1407.5" fill="#c43e3b" r="13.1"/><circle cx="1779.3" cy="1485.3" fill="#c43e3b" r="21.9"/><circle cx="1830.6" cy="1490" fill="#c43e3b" r="18.4"/><circle cx="236.9" cy="610.1" fill="#c43e3b" r="13.1"/><circle cx="322.7" cy="522.9" fill="#c43e3b" r="21.9"/><circle cx="271.2" cy="523.6" fill="#c43e3b" r="18.4"/><path d="m1419.4 1907.3h-790.8c-76.1 0-137.8-61.7-137.8-137.8v-1491c0-76.1 61.7-137.8 137.8-137.8h790.7c76.1 0 137.8 61.7 137.8 137.8v1490.9c.1 76.2-61.6 137.9-137.7 137.9z" fill="#fff"/><path d="m1019 104.5h10v1066.4h-10z" fill="#d6d6d6" transform="matrix(.00421973 -1 1 .00421973 381.8999 1658.9961)"/><path d="m1419.4 1917.3h-790.8c-81.5 0-147.8-66.3-147.8-147.8v-1491c0-81.5 66.3-147.8 147.8-147.8h790.7c81.5 0 147.8 66.3 147.8 147.8v1490.9c.1 81.6-66.2 147.9-147.7 147.9zm-790.8-1766.6c-70.5 0-127.8 57.3-127.8 127.8v1490.9c0 70.5 57.3 127.8 127.8 127.8h790.7c70.5 0 127.8-57.3 127.8-127.8v-1490.9c0-70.5-57.3-127.8-127.8-127.8z" fill="#202020"/><path d="m1326.3 352.3h-683.8c-13.8 0-25-11.2-25-25s11.2-25 25-25h683.8c13.8 0 25 11.2 25 25s-11.2 25-25 25z" fill="#d6d6d6"/><path d="m758.9 553.3h-104c-21.7 0-39.2-17.6-39.2-39.2 0-21.7 17.6-39.2 39.2-39.2h104c21.7 0 39.2 17.6 39.2 39.2.1 21.6-17.5 39.2-39.2 39.2z" fill="#74b772"/><path d="m988.9 553.3h-104c-21.7 0-39.2-17.6-39.2-39.2 0-21.7 17.6-39.2 39.2-39.2h104c21.7 0 39.2 17.6 39.2 39.2.1 21.6-17.5 39.2-39.2 39.2z" fill="#74b772"/><path d="m1225.1 553.3h-116.4c-21.7 0-39.2-17.6-39.2-39.2 0-21.7 17.6-39.2 39.2-39.2h116.4c21.7 0 39.2 17.6 39.2 39.2 0 21.6-17.5 39.2-39.2 39.2z" fill="#74b772"/><g fill="#fff"><path d="m656.4 501.6h-5.1v9h-9.2v5.3h9.2v9.1h5.1v-9.1h9.2v-5.3h-9.2z"/><path d="m731.1 497.9h-7.9l-7.4 11.2-7.4-11.2h-7.9l11 16.7-11.8 17.6-11.8-17.6 11-16.7h-7.9l-7.4 11.2-7.4-11.2h-7.9l10.9 16.7-11.8 17.6h8l8.2-12.5 8.2 12.5h7.9 8l8.2-12.5 8.2 12.5h7.8l-11.8-17.6z"/><path d="m759.8 497.9-25.1 34.4h7.1l25.1-34.4z"/><path d="m766 518.8c-1.5-1.5-3.4-2.3-5.5-2.3-2.2 0-4 .8-5.5 2.4s-2.2 3.5-2.2 5.7.7 4.1 2.2 5.7 3.2 2.3 5.5 2.3c2.2 0 4-.8 5.5-2.4s2.2-3.5 2.2-5.7-.8-4.1-2.2-5.7zm-3 6c0 .8-.2 1.5-.7 2.2-.5.6-1.2.8-1.6.9-.7 0-1.3-.3-1.7-.9-.5-.6-.7-1.3-.7-2.2 0-.8.2-1.5.7-2.2.4-.6.9-.8 1.6-.8s1.3.3 1.7.9c.5.5.7 1.2.7 2.1z"/><path d="m741.4 513.2c2.2 0 4-.8 5.5-2.4s2.2-3.5 2.2-5.7-.7-4.1-2.2-5.7c-1.3-1.5-3.2-2.3-5.5-2.3-2.2 0-4 .8-5.5 2.4s-2.2 3.5-2.2 5.7.7 4.1 2.2 5.7c1.5 1.5 3.3 2.3 5.5 2.3zm-1.6-10.2c.4-.6.9-.8 1.6-.8s1.3.3 1.7.9c.4.5.7 1.3.7 2.2 0 .8-.2 1.5-.7 2.2-.4.6-.9.8-1.6.8s-1.3-.3-1.7-.9c-.4-.5-.7-1.3-.7-2.2 0-.8.2-1.5.7-2.2z"/><path d="m886.4 501.6h-5.1v9h-9.2v5.3h9.2v9.1h5.1v-9.1h9.2v-5.3h-9.2z"/><path d="m961.1 497.9h-7.9l-7.4 11.2-7.4-11.2h-7.9l11 16.7-11.8 17.6-11.8-17.6 11-16.7h-7.9l-7.4 11.2-7.4-11.2h-7.9l10.9 16.7-11.8 17.6h8l8.2-12.5 8.2 12.5h7.9 8l8.2-12.5 8.2 12.5h7.8l-11.8-17.6z"/><path d="m996 518.8c-1.5-1.5-3.4-2.3-5.5-2.3-2.2 0-4 .8-5.5 2.4s-2.2 3.5-2.2 5.7.7 4.1 2.2 5.7 3.2 2.3 5.5 2.3c2.2 0 4-.8 5.5-2.4s2.2-3.5 2.2-5.7-.8-4.1-2.2-5.7zm-3 6c0 .8-.2 1.5-.7 2.2-.5.6-1.2.8-1.6.9-.7 0-1.3-.3-1.7-.9-.5-.6-.7-1.3-.7-2.2 0-.8.2-1.5.7-2.2.4-.6.9-.8 1.6-.8s1.3.3 1.7.9c.5.5.7 1.2.7 2.1z"/><path d="m989.8 497.9-25.1 34.4h7.1l25.1-34.4z"/><path d="m971.4 513.2c2.2 0 4-.8 5.5-2.4s2.2-3.5 2.2-5.7-.7-4.1-2.2-5.7c-1.3-1.5-3.2-2.3-5.5-2.3-2.2 0-4 .8-5.5 2.4s-2.2 3.5-2.2 5.7.7 4.1 2.2 5.7c1.5 1.5 3.3 2.3 5.5 2.3zm-1.6-10.2c.4-.6.9-.8 1.6-.8s1.3.3 1.7.9c.4.5.7 1.3.7 2.2 0 .8-.2 1.5-.7 2.2-.4.6-.9.8-1.6.8s-1.3-.3-1.7-.9c-.4-.5-.7-1.3-.7-2.2 0-.8.2-1.5.7-2.2z"/><path d="m1123 515.3c-1.9-1.6-4.6-2.8-8-3.6-4-.9-5.8-1.7-6.6-2.3-1-.6-1.4-1.5-1.4-2.8 0-1.2.5-2.1 1.4-2.7 1.9-1.2 4.9-1.3 8.9-.2 1.7.6 2.9 1.3 3.9 2.1l.3.3 3.4-4.9-.3-.2c-1.7-1.4-3.5-2.4-5.6-3.1-2.2-.7-4.5-1.1-6.5-1.1-3.5 0-6.2.8-8.6 2.6-2.4 1.7-3.6 4.3-3.6 7.5s1.1 5.6 3.1 7.2c1 .8 2.1 1.4 3.5 2 1.2.5 3 1 5.6 1.6 2.3.5 4 1.2 5.1 1.9.9.6 1.3 1.5 1.3 2.7s-.5 2.1-1.5 2.8c-.9.7-2.3 1.1-4.1 1.1-3.6 0-7-1.4-10.4-4.3l-.3-.2-4.1 4.9.3.2c4.2 3.6 8.9 5.5 14.2 5.5 3.7 0 6.7-.9 8.9-2.8 2.3-1.9 3.4-4.4 3.4-7.4.5-2.9-.4-5.2-2.3-6.8z"/><path d="m1131.2 495.8h6.2v36.3h-6.2z"/><path d="m1165.1 508.7c-2.6-2.1-5.5-3.2-9.1-3.2-3.5 0-6.6 1.2-9.3 3.7-2.6 2.5-3.9 5.8-3.9 9.9s1.3 7.4 3.9 9.9 5.7 3.7 9.4 3.7c4.5 0 8.1-1.4 11.1-4.4l.3-.3-3.6-4-.3.3c-1.6 1.9-3.9 2.9-7 2.9-1.9 0-3.6-.5-5.2-1.6-1.4-1-2.1-2.3-2.3-3.8h19.6v-.4h.3v-3.7c-.1-3.8-1.4-6.8-3.9-9zm-16.1 8.1c.1-1.7.8-3.2 2.1-4.1 1.6-1.2 3.2-1.7 5.1-1.7s3.5.6 4.8 1.6c1.1 1 1.8 2.4 1.9 4.2z"/><path d="m1194.7 508.7c-2.6-2.1-5.5-3.2-9.1-3.2-3.5 0-6.6 1.2-9.3 3.7-2.6 2.5-3.9 5.8-3.9 9.9s1.3 7.4 3.9 9.9 5.7 3.7 9.4 3.7c4.5 0 8.1-1.4 11.1-4.4l.3-.3-3.6-4-.3.3c-1.6 1.9-3.9 2.9-7 2.9-1.9 0-3.6-.5-5.2-1.6-1.4-1-2.1-2.3-2.3-3.8h19.6v-.4h.3v-3.7c-.1-3.8-1.4-6.8-3.9-9zm-16.1 8.1c.1-1.7.8-3.2 2.1-4.1 1.6-1.2 3.2-1.7 5.1-1.7s3.5.6 4.8 1.6c1.1 1 1.8 2.4 1.9 4.2z"/><path d="m1226.9 509.2c-2.5-2.5-5.5-3.7-9.1-3.7-3.2 0-5.9 1.4-7.9 4.2v-3.6h-6.2v35.5h6.2v-12.6c2.5 2.4 5.3 3.7 8.3 3.7 3.3 0 6.2-1.3 8.7-3.8 2.5-2.6 3.7-5.9 3.7-9.9 0-4.1-1.2-7.3-3.7-9.8zm-2.4 9.9c0 2.4-.8 4.3-2.3 5.7-1.4 1.4-3.2 2.2-5.2 2.2-2.1 0-3.8-.7-5.1-2.2-1.4-1.5-2.1-3.4-2.1-5.7s.7-4.2 2.2-5.9c1.3-1.5 3.1-2.3 5.1-2.3s3.8.8 5.2 2.3c1.5 1.6 2.2 3.6 2.2 5.9z"/></g><path d="m612.5 740.6h-46v14.8h15.3v42.6h15.5v-42.6h15.2z" fill="#202020"/><path d="m617.2 780.9c-2.5 0-4.6.9-6.3 2.5l-.1.1c-1.6 1.8-2.4 3.8-2.4 6.2 0 2.3.8 4.4 2.4 6.2l.1.1c1.7 1.7 3.9 2.6 6.3 2.6s4.5-.9 6.2-2.6c1.8-1.6 2.7-3.8 2.7-6.3s-.9-4.7-2.7-6.3c-1.6-1.6-3.8-2.5-6.2-2.5z" fill="#202020"/><path d="m646.2 740.7h-15.5v57.4h38.5v-15.1h-23z" fill="#202020"/><path d="m678.1 780.9c-2.5 0-4.6.9-6.3 2.5l-.1.1c-1.6 1.8-2.4 3.8-2.4 6.2 0 2.3.8 4.4 2.4 6.2l.1.1c1.7 1.7 3.9 2.6 6.3 2.6s4.5-.9 6.2-2.6c1.8-1.6 2.7-3.8 2.7-6.3s-.9-4.7-2.7-6.3c-1.6-1.6-3.8-2.5-6.2-2.5z" fill="#202020"/><path d="m735.6 748.2c-5.4-5-13.2-7.5-23.2-7.5h-20.8v57.3h20.2c10.8 0 18.7-2.6 24-7.8 5.4-5.3 8.2-12.4 8.2-21.1s-2.8-15.7-8.4-20.9zm-28.5 7.3h5c14.4 0 16.3 7.4 16.3 13.8 0 4.7-1.2 7.9-3.8 10.2s-6.5 3.5-11.6 3.5h-5.9z" fill="#202020"/><path d="m754.6 780.9c-2.5 0-4.6.9-6.3 2.5l-.1.1c-1.6 1.8-2.4 3.8-2.4 6.2 0 2.3.8 4.4 2.4 6.2l.1.1c1.7 1.7 3.9 2.6 6.3 2.6s4.5-.9 6.2-2.6c1.8-1.6 2.7-3.8 2.7-6.3s-.9-4.7-2.7-6.3c-1.6-1.6-3.8-2.5-6.2-2.5z" fill="#202020"/><path d="m815.3 760.5c0-8.6-3.5-13-6.3-15.1-4-3.1-10.1-4.7-18.7-4.7h-22.2v57.3h15.5v-16.9h5.9l12 16.9h19.4l-14.6-20.3c5.9-3.3 9-9.2 9-17.2zm-15.7-.1c0 1.5-.2 3.5-1.4 4.5-.6.5-2.4 1.5-7.5 1.4h-7.1v-11h7.3c4.9 0 6.8.7 7.5 1.2.4.2 1.2 1 1.2 3.9z" fill="#202020"/><path d="m836.5 772c0-2.5-.9-4.7-2.7-6.3-1.6-1.6-3.8-2.5-6.2-2.5-2.5 0-4.6.9-6.3 2.5l-.1.1c-1.6 1.8-2.4 3.8-2.4 6.2s.8 4.4 2.4 6.2 3.8 2.7 6.4 2.7c2.4 0 4.5-.9 6.2-2.6 1.8-1.6 2.7-3.8 2.7-6.3z" fill="#202020"/><path d="m827.6 780.9c-2.5 0-4.6.9-6.3 2.5l-.1.1c-1.6 1.8-2.4 3.8-2.4 6.2 0 2.3.8 4.4 2.4 6.2l.1.1c1.7 1.7 3.9 2.6 6.3 2.6s4.5-.9 6.2-2.6c1.8-1.6 2.7-3.8 2.7-6.3s-.9-4.7-2.7-6.3c-1.6-1.6-3.8-2.5-6.2-2.5z" fill="#202020"/><path d="m1397.3 797h-462.3c-13.8 0-25-11.2-25-25s11.2-25 25-25h462.3c13.8 0 25 11.2 25 25s-11.2 25-25 25z" fill="#d6d6d6"/><path d="m1402.2 928.9h-810.6c-13.8 0-25-11.2-25-25s11.2-25 25-25h810.6c13.8 0 25 11.2 25 25s-11.2 25-25 25z" fill="#d6d6d6"/><path d="m689.6 1138v-27c0-6-1.7-10.7-5-13.9-3.3-3.3-7.7-5-13-5-3.2 0-6.3.8-9.2 2.4v-16.9h-15.1v3.1h-14.9l-10 28.5-8.8-28.5h-12.8l-8.8 28.5-10-28.5h-16.5l20 57.3h13.5l8.2-26.7 8.2 26.7h13.5l18.4-52.6v52.6h15.1v-24.2c0-2.6.6-4.4 1.8-5.5 1.4-1.3 3-1.9 5-1.9 2.7 0 5.3.5 5.3 7.1v24.5z" fill="#202020"/><path d="m764 1084c-3.3-2.9-7.6-4.4-12.7-4.4-5 0-9.4 1.5-12.9 4.4-2.7 2.2-4.6 5.2-5.6 8.8h-11.6l-9 22.4-9-22.4h-16.2l1.9 4.8c5 12.3 14 34.8 15.2 38.5-.1.3-.3.9-.8 1.6-.3.3-.7.7-1.7.7-.3 0-1.3 0-2.8-1.4l-3.3-3.1-7.3 13 2.1 1.9c3.5 3.1 7.5 4.7 11.8 4.7 3.1 0 5.9-.9 8.5-2.7s4.7-4.2 6.1-7.5l17.5-42.9h13.1l.3-3.1c.1-1.3.6-1.9.9-2.2.7-.6 1.4-.8 2.3-.8 1 0 1.5.3 2 .8s.7 1.1.7 1.9c0 .9-.2 1.5-.7 2.1l-5.2 5.2c-1.6 1.6-2.9 3.2-3.6 4.5l-.1.1c-.7 1.5-1.1 3.3-1.1 5.9v7.9h2.4c-.4.3-.8.6-1.2 1-1.7 1.7-2.6 3.9-2.6 6.3s1 4.6 2.8 6.3c1.7 1.6 3.9 2.4 6.3 2.4 2.5 0 4.7-.9 6.4-2.6s2.6-3.9 2.6-6.3-1-4.6-2.8-6.3c-.3-.3-.7-.6-1-.8h2.4v-6.8c0-1.7.4-2.1.5-2.3l.1-.1c.2-.2.5-.6 1-1 .5-.5 1.1-1.1 1.8-1.7.8-.7 1.5-1.3 2-1.8.7-.6 1.5-1.5 2.5-2.8 2.1-2.5 3.2-5.7 3.2-9.4 0-5.7-1.8-9.9-5.2-12.8z" fill="#202020"/><path d="m788.9 1112c0-2.5-.9-4.7-2.7-6.3-1.6-1.6-3.8-2.5-6.2-2.5-2.5 0-4.6.9-6.3 2.5l-.1.1c-1.6 1.8-2.4 3.8-2.4 6.2 0 2.3.8 4.4 2.4 6.2 1.7 1.8 3.8 2.7 6.4 2.7 2.4 0 4.5-.9 6.2-2.6 1.8-1.6 2.7-3.8 2.7-6.3z" fill="#202020"/><path d="m780 1120.9c-2.5 0-4.6.9-6.3 2.5l-.1.1c-1.6 1.8-2.4 3.8-2.4 6.2s.8 4.4 2.4 6.2l.1.1c1.7 1.7 3.9 2.6 6.3 2.6s4.5-.9 6.2-2.6c1.8-1.6 2.7-3.8 2.7-6.3s-.9-4.7-2.7-6.3c-1.6-1.6-3.8-2.5-6.2-2.5z" fill="#202020"/><path d="m1397.3 1137h-522.3c-13.8 0-25-11.2-25-25s11.2-25 25-25h522.3c13.8 0 25 11.2 25 25s-11.2 25-25 25z" fill="#d6d6d6"/><path d="m1402.2 1268.9h-810.6c-13.8 0-25-11.2-25-25s11.2-25 25-25h810.6c13.8 0 25 11.2 25 25s-11.2 25-25 25z" fill="#d6d6d6"/><path d="m608.2 1442.5h-18v-21.8h-15.5v57.3h15.5v-20.6h18v20.6h15.5v-57.3h-15.5z" fill="#202020"/><path d="m650.7 1432.1c-6.7 0-12.4 2.3-16.8 6.7-4.6 4.4-6.9 10-6.9 16.5 0 6.4 2.3 11.9 6.8 16.5 4.5 4.5 10.1 6.7 16.9 6.7 6.7 0 12.4-2.3 16.9-6.7 4.4-4.4 6.7-9.9 6.8-16.5 0-6.4-2.3-11.9-6.8-16.5-4.5-4.4-10.2-6.7-16.9-6.7zm8.6 23.3c0 2.8-.8 4.9-2.4 6.5-1.7 1.7-3.7 2.5-6.2 2.5s-4.5-.8-6.2-2.4c-1.6-1.7-2.4-3.8-2.4-6.6s.8-4.9 2.4-6.5c1.7-1.7 3.7-2.5 6.2-2.5s4.6.8 6.2 2.5c1.6 1.6 2.4 3.7 2.4 6.5z" fill="#202020"/><path d="m720.3 1453.9-7-21.2h-13.4l-7 21.2-7-21.2h-15.8l15.6 45.3h14.2l6.8-19.1 6.6 19.1h14.2l15.6-45.3h-15.8z" fill="#202020"/><path d="m782.7 1463.2c-.9.9-1.7 1.4-2.5 1.4-.9 0-1.2-.2-1.3-.4-.4-.5-.6-1.2-.6-2.1v-15.9h10.1v-13.5h-10.1v-12h-15.1v12h-4.8v13.5h4.8v15.7c0 4.9 1.6 9 4.6 12.1 3 3 6.9 4.6 11.3 4.6 4.2 0 8.3-1.6 11.7-4.7l2.1-1.9-7.1-12.2z" fill="#202020"/><path d="m812.3 1432.1c-6.7 0-12.4 2.3-16.8 6.7-4.6 4.4-6.9 10-6.9 16.5 0 6.4 2.3 11.9 6.8 16.5 4.5 4.5 10.1 6.7 16.9 6.7 6.7 0 12.4-2.3 16.9-6.7 4.5-4.5 6.8-10.1 6.8-16.5s-2.3-11.9-6.8-16.5c-4.5-4.4-10.2-6.7-16.9-6.7zm8.6 23.3c0 2.8-.8 4.9-2.4 6.5-1.7 1.7-3.7 2.5-6.2 2.5s-4.5-.8-6.2-2.4c-1.6-1.7-2.4-3.8-2.4-6.6s.8-4.9 2.4-6.5c1.7-1.7 3.7-2.5 6.2-2.5s4.6.8 6.2 2.5c1.6 1.6 2.4 3.7 2.4 6.5z" fill="#202020"/><path d="m886.4 1434.3c-2.6-1.5-5.6-2.2-8.8-2.2-6.1 0-11.4 2.1-15.6 6.3-4.4 4.2-6.6 9.9-6.6 16.8s2.2 12.6 6.4 16.9c4.3 4.3 9.2 6.4 14.7 6.4h.4c3.6 0 6.8-.7 9.5-2.1v1.6h15v-60.4h-15.1v16.7zm-2.1 27.8c-1.6 1.6-3.4 2.4-5.6 2.4s-4.1-.8-5.8-2.5-2.5-3.8-2.5-6.5.8-4.9 2.6-6.7c1.6-1.7 3.5-2.6 5.7-2.6 2.1 0 3.9.8 5.5 2.6 1.6 1.7 2.4 4 2.4 6.7 0 2.8-.8 4.9-2.3 6.6z" fill="#202020"/><path d="m927.3 1432.1c-6.7 0-12.4 2.3-16.8 6.7-4.6 4.4-6.9 10-6.9 16.5 0 6.4 2.3 11.9 6.8 16.5 4.5 4.5 10.1 6.7 16.9 6.7 6.7 0 12.4-2.3 16.9-6.7s6.8-10 6.8-16.5c0-6.4-2.3-11.9-6.8-16.5-4.5-4.4-10.2-6.7-16.9-6.7zm8.7 23.3c0 2.8-.8 4.9-2.4 6.5-1.7 1.7-3.7 2.5-6.2 2.5s-4.5-.8-6.2-2.4c-1.6-1.7-2.4-3.8-2.4-6.6s.8-4.9 2.4-6.5c1.7-1.7 3.7-2.5 6.2-2.5s4.6.8 6.2 2.5c1.6 1.6 2.4 3.7 2.4 6.5z" fill="#202020"/><path d="m989.1 1425c0-2.3-.9-4.4-2.5-6.1-1.7-1.7-3.8-2.5-6.1-2.5s-4.4.9-6.1 2.5c-1.7 1.7-2.5 3.8-2.5 6.1s.9 4.4 2.5 6.1c.7.7 1.4 1.2 2.2 1.6h-3.9v45.3h15.1v-45.3h-3.6c.8-.4 1.6-1 2.2-1.6 1.8-1.7 2.7-3.8 2.7-6.1z" fill="#202020"/><path d="m1051.5 1424c-3.3-2.9-7.6-4.4-12.7-4.4-5 0-9.4 1.5-12.9 4.4s-5.6 7.1-6.2 12.3v.2-3.8h-10.1v-12h-15.1v12h-4.8v13.5h4.8v15.7c0 4.9 1.6 9 4.6 12.1 3 3 6.9 4.6 11.3 4.6 4.2 0 8.3-1.6 11.7-4.7l2.1-1.9-7.1-12.2-3.2 3.4c-.9.9-1.7 1.4-2.5 1.4-.9 0-1.2-.2-1.3-.4-.4-.5-.6-1.2-.6-2.1v-15.9h10.1v-6h15.4l.3-3.1c.1-1.3.6-1.9.9-2.2.7-.6 1.3-.8 2.3-.8s1.5.3 2 .8.7 1.1.7 1.9c0 .9-.2 1.5-.7 2.1l-5.2 5.2c-1.6 1.6-2.9 3.2-3.6 4.5l-.1.1c-.7 1.5-1.1 3.3-1.1 5.9v7.9h2.4c-.4.3-.8.6-1.2 1-1.7 1.7-2.6 3.9-2.6 6.3s1 4.6 2.8 6.3c1.7 1.6 3.9 2.4 6.3 2.4 2.5 0 4.7-.9 6.4-2.6s2.6-3.9 2.6-6.3-1-4.6-2.8-6.3c-.3-.3-.7-.6-1-.8h2.4v-6.8c0-1.7.4-2.1.5-2.3l.1-.1c.2-.2.5-.6 1-1 .5-.5 1.1-1.1 1.8-1.7.8-.7 1.5-1.4 2-1.8.7-.6 1.5-1.5 2.5-2.8 2.1-2.5 3.2-5.7 3.2-9.4-.2-5.5-2-9.7-5.4-12.6z" fill="#202020"/><path d="m1067.5 1460.9c-2.6 0-4.8.9-6.4 2.6-1.6 1.8-2.4 3.8-2.4 6.2s.8 4.4 2.4 6.2l.1.1c1.7 1.7 3.9 2.6 6.3 2.6s4.5-.9 6.2-2.6c1.8-1.6 2.7-3.8 2.7-6.3s-.9-4.7-2.7-6.3c-1.6-1.6-3.8-2.5-6.2-2.5z" fill="#202020"/><path d="m1076.4 1452c0-2.5-.9-4.7-2.7-6.3-1.6-1.6-3.8-2.5-6.2-2.5-2.5 0-4.6.9-6.3 2.5l-.1.1c-1.6 1.8-2.4 3.8-2.4 6.2 0 2.3.8 4.4 2.4 6.2s3.8 2.7 6.4 2.7c2.4 0 4.5-.9 6.2-2.6 1.8-1.6 2.7-3.8 2.7-6.3z" fill="#202020"/><path d="m1397.3 1477h-261.1c-13.8 0-25-11.2-25-25s11.2-25 25-25h261.1c13.8 0 25 11.2 25 25s-11.2 25-25 25z" fill="#d6d6d6"/><path d="m1402.2 1608.9h-810.6c-13.8 0-25-11.2-25-25s11.2-25 25-25h810.6c13.8 0 25 11.2 25 25s-11.2 25-25 25z" fill="#d6d6d6"/></svg>