<svg enable-background="new 0 0 2048 2048" viewBox="0 0 2048 2048" xmlns="http://www.w3.org/2000/svg"><path d="m1822.1 782.5c-3.9 166.2 261.2 596.5-87.2 578s-708.6 88.6-834.2 339.9-741.6-178.4-764.1-378.4c-31.3-280.1 142.4-866.2 443.8-737.4 199.3 85.4 406.4-70.1 524.2-185.4 110.7-108.5 269.8-153 419.9-114.6 155.2 39.9 305.8 164.1 297.6 497.9z" fill="#c43e3b"/><path d="m1789.6 954.3h-1531.2c-69.3 0-125.4-56.1-125.4-125.4v-203.8c0-69.3 56.1-125.4 125.4-125.4h1531.2c69.3 0 125.4 56.1 125.4 125.4v203.7c0 69.3-56.2 125.5-125.4 125.5z" fill="#9ece9b"/><path d="m311.9 818.8c-50.6 0-91.8-41.2-91.8-91.8s41.2-91.8 91.8-91.8 91.8 41.2 91.8 91.8-41.2 91.8-91.8 91.8zm0-163.6c-39.6 0-71.8 32.2-71.8 71.8s32.2 71.8 71.8 71.8 71.8-32.2 71.8-71.8-32.2-71.8-71.8-71.8z" fill="#393939"/><path d="m1661.5 707h-1134.1c-13.8 0-25-11.2-25-25s11.2-25 25-25h1134.1c13.8 0 25 11.2 25 25s-11.2 25-25 25z" fill="#fff"/><path d="m1139.2 797h-611.8c-13.8 0-25-11.2-25-25s11.2-25 25-25h611.8c13.8 0 25 11.2 25 25s-11.2 25-25 25z" fill="#fff"/><path d="m1070.1 1237h-703.2c-27.6 0-50.1-22.4-50.1-50.1v-104.8c0-27.6 22.4-50.1 50.1-50.1h703.2c27.6 0 50.1 22.4 50.1 50.1v104.8c0 27.7-22.4 50.1-50.1 50.1z" fill="#9ece9b"/><path d="m397.5 1174.9c-22.3 0-40.4-18.1-40.4-40.4s18.1-40.4 40.4-40.4 40.4 18.1 40.4 40.4-18.1 40.4-40.4 40.4zm0-73.8c-18.4 0-33.4 15-33.4 33.4s15 33.4 33.4 33.4 33.4-15 33.4-33.4-15-33.4-33.4-33.4z" fill="#393939"/><path d="m1005.9 1124.3h-511.2c-5.5 0-10-4.5-10-10s4.5-10 10-10h511.2c5.5 0 10 4.5 10 10s-4.5 10-10 10z" fill="#fff"/><path d="m770.5 1164.8h-275.8c-5.5 0-10-4.5-10-10s4.5-10 10-10h275.8c5.5 0 10 4.5 10 10s-4.5 10-10 10z" fill="#fff"/><path d="m1070.1 1517h-703.2c-27.6 0-50.1-22.4-50.1-50.1v-104.8c0-27.6 22.4-50.1 50.1-50.1h703.2c27.6 0 50.1 22.4 50.1 50.1v104.8c0 27.7-22.4 50.1-50.1 50.1z" fill="#9ece9b"/><path d="m397.5 1454.9c-22.3 0-40.4-18.1-40.4-40.4s18.1-40.4 40.4-40.4 40.4 18.1 40.4 40.4-18.1 40.4-40.4 40.4zm0-73.8c-18.4 0-33.4 15-33.4 33.4s15 33.4 33.4 33.4 33.4-15 33.4-33.4-15-33.4-33.4-33.4z" fill="#393939"/><path d="m1005.9 1404.3h-511.2c-5.5 0-10-4.5-10-10s4.5-10 10-10h511.2c5.5 0 10 4.5 10 10s-4.5 10-10 10z" fill="#fff"/><path d="m770.5 1444.8h-275.8c-5.5 0-10-4.5-10-10s4.5-10 10-10h275.8c5.5 0 10 4.5 10 10s-4.5 10-10 10z" fill="#fff"/><g fill="#c43e3b"><circle cx="1873.6" cy="1407.5" r="13.1"/><circle cx="1779.3" cy="1485.3" r="21.9"/><circle cx="1830.6" cy="1490" r="18.4"/><circle cx="796.9" cy="430.1" r="13.1"/><circle cx="882.7" cy="342.9" r="21.9"/><circle cx="831.2" cy="343.6" r="18.4"/></g><circle cx="1710.9" cy="990.6" fill="#9ece9b" r="13.1"/><circle cx="1592" cy="1019.1" fill="#9ece9b" r="21.9"/><circle cx="1636.1" cy="1045.8" fill="#9ece9b" r="18.4"/></svg>