<svg enable-background="new 0 0 1920 1080" viewBox="0 0 1920 1080" xmlns="http://www.w3.org/2000/svg"><path d="m0 0h1920v1080h-1920z" fill="#9ece9b"/><g fill="#74b772"><path d="m1920 0v458.2c-136.4 25-254.6 87.3-306.2 190.5-74.7 149.4-440.9-106-454.3-224.9-13.9-123.9 39.7-348.4 141.8-423.8z"/><circle cx="1050.9" cy="234.5" r="10"/><circle cx="1080.7" cy="145.9" r="16.8"/><circle cx="1045.4" cy="163.6" r="14.1"/><circle cx="1697.6" cy="653.5" r="8.1"/><circle cx="1647.3" cy="709.7" r="13.5"/><circle cx="1679.1" cy="707.7" r="11.4"/></g><path d="m0 849.9h1920v230.1h-1920z" fill="#202020"/><path d="m1920 294.6-1920-8.9" fill="none" stroke="#fff" stroke-miterlimit="10" stroke-width="30"/><path d="m1920 684.6-1920-8.9" fill="none" stroke="#fff" stroke-miterlimit="10" stroke-width="30"/><path d="m1920 484.6-1920-8.9" fill="none" stroke="#fff" stroke-miterlimit="10" stroke-width="30"/><path d="m1151.2 353.1c42 3 82 17 121 34 25 10 51 14 78 17" style="fill:none;stroke:#202020;stroke-width:20;stroke-linecap:round;stroke-linejoin:round;stroke-miterlimit:10"/><path d="m1282.2 185.8h78.3v461.6h-78.3z" fill="#d6d6d6"/><path d="m1212.7 79.3c0 3.8.6 7.2 1.6 10.7h-10.3c-29.3 0-53.1 23.8-53.1 53.1s23.8 53.1 53.1 53.1h234.6c29.3 0 53.1-23.8 53.1-53.1s-23.8-53.1-53.1-53.1h-10.3c1.1-3.3 1.6-6.9 1.6-10.7 0-19.6-15.8-35.4-35.4-35.4h-146.5c-19.3-.2-35.3 15.8-35.3 35.4z" fill="#202020"/><path d="m1151 664.2c0 29.3 23.8 53.1 53.1 53.1h10.3c-1.1 3.3-1.6 6.9-1.6 10.7 0 19.6 15.8 35.4 35.4 35.4h146.5c19.6 0 35.4-15.8 35.4-35.4 0-3.8-.6-7.2-1.6-10.7h10.3c29.3 0 53.1-23.8 53.1-53.1s-23.8-53.1-53.1-53.1h-234.6c-29.4 0-53.2 23.8-53.2 53.1z" fill="#202020"/><path d="m1216.9 141.3c0-25.1 90.7-25.1 90.7 0s-90.7 25.1-90.7 0z" fill="#fff"/><circle cx="1255.2" cy="141.3" fill="#202020" r="9.2"/><path d="m1425.9 141.3c0-25.1-90.7-25.1-90.7 0s90.7 25.1 90.7 0z" fill="#fff"/><circle cx="1372.9" cy="141.3" fill="#202020" r="9.2"/><path d="m1165.1 902.4c-5.3 0-10.3-3.4-12.2-8.8-7-21 4.4-56.1 34.9-107.3 21.3-35.7 43.9-65.8 44.8-67 4.2-5.6 12.4-6.9 18-2.5s6.9 12.4 2.5 18c-.2.3-22.9 30.4-43.4 65-36.3 61.1-34.1 81.1-32.6 85.8 2.2 6.7-1.4 14.1-8.1 16.3-1.1.3-2.5.5-3.9.5z" fill="#202020"/><path d="m1474 866.2c-3 0-6-.9-8.3-3.1-17.7-15.2-33.5-45.6-47-90.1-9.7-32.1-14.6-59.7-14.7-60.9-1.3-7 3.4-13.6 10.5-14.9 7-1.3 13.6 3.4 14.9 10.5 5.2 29.4 24.6 111.4 53.1 135.8 5.3 4.7 6 12.7 1.4 18.2-2.7 3-6.3 4.5-9.9 4.5z" fill="#202020"/><path d="m1207.2 248.1c29 5 56 17 82 32 32 20 64 34 99 44" style="fill:none;stroke:#202020;stroke-width:20;stroke-linecap:round;stroke-linejoin:round;stroke-miterlimit:10"/><path d="m1295.2 250.2-22.3 51.3c-4.8 11-17.5 16-28.5 11.2l-30.4-13.2c-11-4.8-16-17.5-11.2-28.5l22.3-51.3c4.8-11 17.5-16 28.5-11.2l30.4 13.2c11 4.8 16 17.5 11.2 28.5z" fill="#c43e3b" stroke="#842c2c" stroke-miterlimit="10" stroke-width="13"/><path d="m1156.4 152c24.3-11.3 86.9 72.2 73.2 103.6-13.6 31.4-53.9 35.2-95.5 26.1-50.8-11.1-61.3-43-42.5-86 6.8-15.7 21.8-45.1 54.6-21.2 0-.1-1.5-17.1 10.2-22.5z" fill="#c43e3b" stroke="#842c2c" stroke-miterlimit="10" stroke-width="13"/><path d="m1183.2 345.3-4.7 22c-2.3 10.8-12.9 17.7-23.6 15.4l-8-1.7c-10.8-2.3-17.7-12.9-15.4-23.6l4.7-22c2.3-10.8 12.9-17.7 23.6-15.4l8 1.7c10.8 2.2 17.6 12.8 15.4 23.6z" fill="#c43e3b" stroke="#842c2c" stroke-miterlimit="10" stroke-width="13"/><path d="m1086.7 296.1c13.5-10 62.5 33.5 58.1 54.6-4.4 21-28.7 28.4-55.5 28-32.6-.5-43.1-18.7-37-47.6 2.2-10.5 7.8-30.5 31-19.9 0 0-3.1-10.3 3.4-15.1z" fill="#c43e3b" stroke="#842c2c" stroke-miterlimit="10" stroke-width="13"/><path d="m486.8 178c3.4 6.5 1.2 14.4-5.1 18.1-6.5 3.8-14.9 1.7-18.7-4.8-.2-.3-13.7-23-30.8-46.2-30.7-41.9-43.6-44.8-44.9-45.1-7.4-1.2-12.6-8.2-11.3-15.7 1.2-7.4 8.2-12.6 15.7-11.3 10.4 1.6 28.4 9.3 62.7 56.2 17.8 24.1 31.5 47.3 32.1 48.3.1 0 .2.3.3.5z" fill="#202020"/><path d="m478.7 166.4c.5-1 14.3-24.2 32.1-48.3 34.4-46.9 52.3-54.5 62.7-56.2 7.5-1.3 14.5 3.9 15.7 11.3 1.3 7.5-3.9 14.5-11.3 15.7-1.3.3-14.1 3.3-44.9 45.1-17.1 23.1-30.6 45.9-30.8 46.2-3.8 6.5-12.2 8.6-18.7 4.8-6.3-3.7-8.5-11.6-5.1-18.1.1-.2.3-.5.3-.5z" fill="#202020"/><path d="m731.5 685.7h-501.8c-20.7 0-37.5-16.8-37.5-37.5v-453.4c0-20.7 16.8-37.5 37.5-37.5h501.8c20.7 0 37.5 16.8 37.5 37.5v453.3c0 20.8-16.8 37.6-37.5 37.6z" fill="#202020"/><path d="m630.6 517.7h-300c-31.9 0-57.8-25.9-57.8-57.8v-135.4c0-31.9 25.9-57.8 57.8-57.8h300.1c31.9 0 57.8 25.9 57.8 57.8v135.4c-.1 31.9-26 57.8-57.9 57.8z" fill="#fff"/><circle cx="616.2" cy="622.2" fill="none" r="18.2" stroke="#fff" stroke-miterlimit="10" stroke-width="10"/><circle cx="330" cy="622.2" fill="none" r="35.7" stroke="#fff" stroke-miterlimit="10" stroke-width="10"/><circle cx="600.8" cy="328.6" fill="#202020" r="9.8"/><circle cx="475.8" cy="328.6" fill="#202020" r="9.8"/><path d="m435.4 343.9c.6 8.6 16.2 15.5 35.4 15.5s34.8-6.9 35.4-15.5" fill="none" stroke="#d6d6d6" stroke-miterlimit="10" stroke-width="10"/><path d="m569.1 344.9c.6 8.6 16.2 15.5 35.4 15.5s34.8-6.9 35.4-15.5" fill="none" stroke="#d6d6d6" stroke-miterlimit="10" stroke-width="10"/><path d="m426.3 589.2c-7 58-25 114-52 166-6 19-14 37-19 57-5 22-10 42-11 64" style="fill:none;stroke:#202020;stroke-width:20;stroke-linecap:round;stroke-linejoin:round;stroke-miterlimit:10"/><path d="m538.3 584.2c22 44 35 90 41 139 2 20 5 39 9 59 2 7 4 12 5 19 7 25 17 47 27 70" style="fill:none;stroke:#202020;stroke-width:20;stroke-linecap:round;stroke-linejoin:round;stroke-miterlimit:10"/><path d="m186.3 535.2c44-20 90-35 139-39 3 0 7-2 10-2 48-4 94-19 138-39" style="fill:none;stroke:#202020;stroke-width:20;stroke-linecap:round;stroke-linejoin:round;stroke-miterlimit:10"/><path d="m692.6 554.4h-424c-17.7 0-32-14.3-32-32v-260.3c0-17.7 14.3-32 32-32h424c17.7 0 32 14.3 32 32v260.3c0 17.7-14.3 32-32 32z" fill="none" stroke="#fff" stroke-miterlimit="10" stroke-width="6"/><path d="m880.4 338.7c-.6 3.1-2.1 6-4.8 8.1-19.2 15.7-53.8 26.6-102.8 32.4-35.4 4.2-65.1 4.2-66.4 4.1-7.6 0-13.6-6.1-13.6-13.7s6.1-13.6 13.7-13.6c31.7.1 120.9-5.1 151.8-30.3 5.9-4.7 14.4-3.9 19.2 1.9 2.6 3.3 3.5 7.3 2.9 11.1z" fill="#202020"/><path d="m386.5 447 13.9 62.4c3.8 17 20.6 27.7 37.6 23.9l34-7.6c17-3.8 27.7-20.6 23.9-37.6l-13.9-62.4c-3.8-17-20.6-27.7-37.6-23.9l-34 7.6c-17 3.8-27.7 20.7-23.9 37.6z" fill="#c43e3b" stroke="#842c2c" stroke-miterlimit="10" stroke-width="13"/><path d="m583.7 353.7c-27.8-20-126.5 69.6-117 112.3s59.1 57.2 113.5 55.8c66.4-1.7 87.3-39.1 74.2-97.7-4.8-21.4-16.5-61.9-63.4-39.8 0 0 6-21-7.3-30.6z" fill="#c43e3b" stroke="#842c2c" stroke-miterlimit="10" stroke-width="13"/><path d="m791.2 335.1 10.5 46c3.9 16.9 20.8 27.5 37.7 23.7l21.4-4.9c16.9-3.9 27.5-20.8 23.7-37.7l-10.5-46c-3.9-16.9-20.8-27.5-37.7-23.7l-21.4 4.9c-17 3.9-27.5 20.8-23.7 37.7z" fill="#c43e3b" stroke="#842c2c" stroke-miterlimit="10" stroke-width="13"/><path d="m961 249.1c-24.2-17.2-109.4 61.1-101 98.1 8.5 37 51.6 49.4 98.8 47.9 57.6-1.8 75.6-34.4 63.9-85.2-4.2-18.6-14.6-53.6-55.3-34.2.1-.1 5.2-18.4-6.4-26.6z" fill="#c43e3b" stroke="#842c2c" stroke-miterlimit="10" stroke-width="13"/></svg>