<svg enable-background="new 0 0 1920 1080" viewBox="0 0 1920 1080" xmlns="http://www.w3.org/2000/svg"><path d="m0 0h1920v1080h-1920z" fill="#9ece9b"/><path d="m1920 0v436.7c-133.9 23.9-250.2 84.6-300.8 185.7-72.6 145.2-428.5-103-441.5-218.6-12.9-116.2 35.2-323.8 127.9-403.8z" fill="#74b772"/><circle cx="1168.4" cy="482.8" fill="#74b772" r="8"/><circle cx="1124" cy="422.5" fill="#74b772" r="13.4"/><circle cx="1119.4" cy="453.8" fill="#74b772" r="11.3"/><path d="m184.5 823.7c-1.2-5-5.5-23.7-6.7-28.8-5.6-24.3-36.3-37.9-68.5-30.4s-53.7 33.3-48.1 57.5c1.2 5 3.4 9.6 6.5 13.6-1 5-1 10.1.1 15.1 5.6 24.3 36.3 37.9 68.5 30.4 32.3-7.4 53.9-33.1 48.2-57.4z" fill="#c43e3b"/><path d="m69.5 801.3c-.5-1.9.1-4.1 1.6-5.6.5-.5 12.9-13 30.5-20.8 24.3-10.7 46.7-7.3 64.7 10 2.4 2.3 2.5 6.1.2 8.5s-12 3.8-14.4 1.5c-14.4-13.8-25.8-17.7-45.6-9-15.5 6.8-27.3 15.1-27.4 15.2-2.3 2.4-5.5 5.4-7.8 3-1-.7-1.6-1.7-1.8-2.8z" fill="#a03535"/><path d="m165.8 830.9c-1.3 0-2.6-.3-3.8-1-13.8-8.1-12.1-22.9-7.5-30.9 2.1-3.6 6.6-4.8 10.2-2.8s4.8 6.6 2.8 10.2c-1.4 2.7-3.1 7.5 2.1 10.6 3.6 2.1 4.8 6.7 2.7 10.3-1.5 2.3-4 3.6-6.5 3.6z" fill="#a03535"/><path d="m0 849.9h1920v230.1h-1920z" fill="#202020"/><path d="m869 983.2c-22.1 0-40-17.9-40-39.9 0-22.1 17.8-40 39.9-40.1l860.3-1.8h.1c22.1 0 40 17.9 40 39.9 0 22.1-17.8 40-39.9 40.1z" fill="#d6d6d6"/><path d="m552.9 112.4c-.1 0-20.7-1.7-36.9 1.8-9.6 2-18.7 6.5-26.6 13-21.3 17.6-36.2 48.6-44.8 40.3-10.7-10.3 25.7-71.1 53.2-76.9 1.3-.3 2.6-.5 3.9-.7 21.5-3.5 53.7 17.7 54.5 17.9" fill="#e0ef89"/><ellipse cx="446.7" cy="166.2" fill="#7e8267" rx="1" ry="3" transform="matrix(.5448 -.8386 .8386 .5448 63.9957 450.2023)"/><circle cx="555.2" cy="110.8" fill="#7e8267" r="3.7"/><path d="m763.3 165.9c-1.2-5-5.5-23.7-6.7-28.8-5.6-24.3-36.3-37.9-68.5-30.4s-53.7 33.3-48.1 57.5c1.2 5 3.4 9.6 6.5 13.6-1 5-1 10.1.1 15.1 5.6 24.3 36.3 37.9 68.5 30.4s53.9-33.2 48.2-57.4z" fill="#c43e3b"/><path d="m648.3 143.5c-.5-1.9.1-4.1 1.6-5.6.5-.5 12.9-13 30.5-20.8 24.3-10.7 46.7-7.3 64.7 10 2.4 2.3 2.5 6.1.2 8.5s-12 3.8-14.4 1.5c-14.4-13.8-25.8-17.7-45.6-9-15.5 6.8-27.3 15.1-27.4 15.2-2.3 2.4-5.5 5.4-7.8 3-1-.7-1.6-1.7-1.8-2.8z" fill="#a03535"/><path d="m744.5 173.1c-1.3 0-2.6-.3-3.8-1-13.8-8.1-12.1-22.9-7.5-30.9 2.1-3.6 6.6-4.8 10.2-2.8s4.8 6.6 2.8 10.2c-1.4 2.7-3.1 7.5 2.1 10.6 3.6 2.1 4.8 6.7 2.7 10.3-1.4 2.2-3.9 3.6-6.5 3.6z" fill="#a03535"/><path d="m135.3 72.7c-.1 0-20.7-1.7-36.9 1.8-9.6 2-18.7 6.5-26.6 13-21.3 17.6-36.2 48.6-44.8 40.3-10.7-10.3 25.7-71.1 53.2-76.9 1.3-.3 2.6-.5 3.9-.7 21.5-3.5 53.7 17.7 54.5 17.9" fill="#e0ef89"/><ellipse cx="29.1" cy="126.4" fill="#7e8267" rx="1" ry="3" transform="matrix(.5448 -.8386 .8386 .5448 -92.7641 81.9678)"/><circle cx="137.6" cy="71.1" fill="#7e8267" r="3.7"/><path d="m286.9 635.3c0-44.8 17.9-81 39.9-81s39.9 36.3 39.9 81-79.8 44.7-79.8 0z" fill="#e0ef89"/><path d="m326.8 671.6c-10.4 0-20.1-3.1-27.4-8.8-8.3-6.5-12.7-15.7-12.7-26.8 0-21.8 4-42.3 11.3-57.8 7.6-16 17.8-24.8 28.8-24.8s21.2 8.8 28.8 24.8c7.3 15.5 11.3 36 11.3 57.8 0 11-4.4 20.3-12.7 26.8-7.3 5.6-17 8.8-27.4 8.8zm0-113.9c-9.3 0-18.7 7.9-25.5 22.2-13.6 28.8-10.3 21.2-10.3 56.1 0 21.3 16.8 33.4 34 33.4s37.8-12.1 37.8-33.4c0-21.1-4.4-40.9-11.4-55.8-6.7-14.3-15.3-22.5-24.6-22.5z" fill="#74b772"/><path d="m326.8 675.2c-11.7 0-22.6-3.4-30.8-9.4-9.4-7-14.3-17-14.3-28.8 0-23.5 4.5-45.6 12.7-62.3 8.5-17.2 20-26.7 32.3-26.7 12.4 0 23.8 9.5 32.3 26.7 8.2 16.7 12.7 38.8 12.7 62.3 0 11.9-4.9 21.8-14.3 28.8-8 6-18.9 9.4-30.6 9.4zm0-121.7c-10.4 0-20.3 7.5-27.9 23-7.9 16-12.2 37.7-12.2 60.4 0 22.9 18.8 34.7 38.2 34.7 19.3 0 42.1-11.8 42.1-34.7 0-22.7-6.3-44.1-14.2-60.1-7.7-15.5-15.6-23.3-26-23.3z" fill="#559351"/><circle cx="326.8" cy="639.6" fill="#441616" r="22.5"/><path d="m349.3 639.6c0 12.4-10.1 22.5-22.5 22.5-7 0-13.2-3.2-17.3-8.2 3.9 3.2 8.9 5.1 14.3 5.1 12.4 0 22.5-10.1 22.5-22.5 0-5.4-1.9-10.4-5.1-14.3 4.9 4.1 8.1 10.4 8.1 17.4z" fill="#2d0f0f"/><circle cx="317.8" cy="630.6" fill="#4c2525" r="4.4"/><g fill="#d6d6d6"><path d="m83.2 434 352.9-366c101.1 97.4 104 258.4 6.6 359.4-97.5 101.1-258.4 104-359.5 6.6z"/><path d="m77.5 472.4c-8.1 0-16.2-3-22.6-9.1-12.9-12.5-13.3-33-.8-46l367.2-380.8c12.5-12.9 33-13.3 46-.8 12.9 12.5 13.3 33 .8 46l-367.2 380.8c-6.4 6.6-14.9 9.9-23.4 9.9z"/><circle cx="439.5" cy="424.4" r="27.8"/><circle cx="267.2" cy="93.8" r="8"/><circle cx="336.3" cy="64.9" r="13.4"/><circle cx="307" cy="53.1" r="11.3"/></g><path d="m1048.5 465.7c-14.9 0-70.3 0-85.2 0-71.9 0-130.2 77.3-130.2 172.8s58.3 172.8 130.2 172.8c14.9 0 29.2-3.3 42.6-9.5 13.3 6.1 27.7 9.5 42.6 9.5 71.9 0 130.2-77.3 130.2-172.8s-58.3-172.8-130.2-172.8z" fill="#c43e3b"/><path d="m910.5 774.5c-5.7 0-11.4-2.8-14.7-8-1.1-1.8-28.2-44.7-38.5-99.3-14.2-75.4 10.1-136.1 70.3-175.4 8-5.3 18.8-3 24.1 5.1 5.2 8 3 36.2-5.1 41.5-48.1 31.4-66.7 61-55.1 122.4 9.1 48.1 24.7 86.6 24.9 87 5.2 8.1 11.5 18.9 3.4 24-2.9 1.8-6.1 2.7-9.3 2.7z" fill="#a03535"/><path d="m1006.9 539.2c-5.6 0-10.7-1.1-15.2-2.5-13.2-4.2-22.3-12.6-22.7-13-3-2.8-3.2-7.6-.4-10.6s7.5-3.2 10.6-.4c.1.1 7.4 6.7 17.5 9.9 12.6 3.9 23.5.8 33.2-9.5 2.8-3 7.6-3.1 10.6-.3s3.1 7.6.3 10.6c-11.4 12-23.4 15.8-33.9 15.8z" fill="#a03535"/><path d="m1006 520.3c-.1 0-.2 0-.2 0-5.5-.1-9.9-4.7-9.8-10.2.9-37.1-6.6-89.7-23.1-91.7-5.5-.7-9.4-5.7-8.7-11.2s5.7-9.4 11.2-8.7c19.2 2.4 31.8 22.9 37.4 61 3.8 25.5 3.2 50 3.2 51.1-.2 5.4-4.6 9.7-10 9.7z" fill="#202020"/><path d="m879.4 910.9c-4.2 0-8.1-2.7-9.5-6.8-5.4-16.3 3.4-43.6 27.2-83.4 16.5-27.8 34.1-51.2 34.8-52.2 3.3-4.4 9.6-5.3 14-2s5.3 9.6 2 14c-.2.2-17.7 23.6-33.7 50.5-28.3 47.5-26.5 63.1-25.3 66.7 1.7 5.2-1.1 10.9-6.3 12.6-1.1.4-2.2.6-3.2.6z" fill="#202020"/><path d="m1128.8 888.6c-2.3 0-4.6-.8-6.5-2.4-13.8-11.8-26.1-35.4-36.5-70-7.5-25-11.3-46.5-11.4-47.4-.9-5.4 2.7-10.6 8.1-11.6 5.4-.9 10.6 2.7 11.6 8.1 4 22.9 19.1 86.6 41.2 105.6 4.2 3.6 4.7 9.9 1.1 14.1-2 2.4-4.8 3.6-7.6 3.6z" fill="#202020"/><path d="m766.2 665.7c-2.8 0-5.6-1.2-7.6-3.5-3.6-4.2-3.2-10.5 1-14.1 27.9-24.1 85.5-21.3 88-21.2 5.5.3 9.7 5 9.4 10.5s-5 9.8-10.5 9.4c-14.4-.8-55.7.7-73.8 16.3-1.8 1.8-4.2 2.6-6.5 2.6z" fill="#202020"/><path d="m1166.3 649c-5.3 0-9.7-4.2-10-9.5-.3-5.5 4-10.2 9.5-10.5.2 0 19.7-1 40.4-4.1 37.6-5.6 44-12.9 44.6-13.7 3.3-4.4 9.6-5.3 14-2s5.3 9.6 2 14c-4.7 6.2-15.7 15.2-57.8 21.5-21.7 3.2-41.4 4.2-42.2 4.3-.1 0-.3 0-.5 0z" fill="#202020"/><path d="m910.6 597.9c0-22.2 80.4-22.2 80.4 0s-80.4 22.2-80.4 0z" fill="#fff"/><circle cx="944.5" cy="597.9" fill="#202020" r="8.2"/><path d="m1095.9 597.9c0-22.2-80.4-22.2-80.4 0s80.4 22.2 80.4 0z" fill="#fff"/><circle cx="1048.9" cy="597.9" fill="#202020" r="8.2"/><path d="m765.9 656.2c-.1-.2-26.8-27.5-53.4-42.5-15.9-8.9-33.8-13.7-52.8-14.3-51-1.4-109.4 23.4-111.2 1.4-2.3-27.4 122.2-67.4 167.5-42.1 2.1 1.2 4.2 2.4 6.3 3.7 34.2 21.3 53.1 90 53.9 91.2" fill="#e0ef89"/><ellipse cx="553" cy="601.5" fill="#7e8267" rx="1.9" ry="5.6" transform="matrix(.9624 -.2717 .2717 .9624 -142.6127 172.8417)"/><circle cx="771" cy="656.7" fill="#7e8267" r="6.8"/><path d="m591.4 569c-4 1.2.5 15.5 4.4 14.3 4-1.3-.4-15.6-4.4-14.3z" fill="#fff"/><circle cx="594" cy="577.3" fill="#202020" r="1.5"/><path d="m601.6 601.9c-4 1.2-8.4-13.1-4.4-14.3 3.9-1.2 8.3 13.1 4.4 14.3z" fill="#fff"/><circle cx="599.7" cy="595.9" fill="#202020" r="1.5"/><path d="m1424.9 661.5c0-171.4 68.4-310.3 152.8-310.3s152.8 138.9 152.8 310.3-305.6 171.4-305.6 0z" fill="#e0ef89"/><path d="m1577.6 800.5c-39.9 0-77.1-11.9-104.9-33.6-31.9-24.9-48.8-60.3-48.8-102.5 0-83.4 15.4-162 43.4-221.2 28.9-61.2 68.1-94.9 110.3-94.9s81.3 33.7 110.3 94.9c28 59.2 43.4 137.8 43.4 221.2 0 42.2-16.9 77.6-48.8 102.5-27.7 21.7-65 33.6-104.9 33.6zm0-435.9c-35.5 0-71.6 30.3-97.6 85.2-52 109.9-39.4 80.8-39.4 214.7 0 81.5 64.3 127.9 130.2 127.9s144.8-46.5 144.8-127.9c0-80.8-16.8-156.6-43.7-213.5-25.8-54.9-58.8-86.4-94.3-86.4z" fill="#74b772"/><path d="m1577.6 814.3c-44.8 0-86.6-12.8-117.8-36.2-35.8-26.8-54.8-65-54.8-110.5 0-89.9 17.3-174.6 48.7-238.4 32.5-66 76.4-102.3 123.8-102.3 47.3 0 91.3 36.3 123.8 102.3 31.4 63.8 48.7 148.5 48.7 238.4 0 45.5-18.9 83.7-54.8 110.5-31 23.4-72.8 36.2-117.6 36.2zm0-466c-39.8 0-77.8 28.8-106.9 88-30.2 61.3-46.8 144.3-46.8 231.3 0 87.8 72.1 132.8 146.2 132.8s161.2-45 161.2-132.8c0-87.1-24.2-168.8-54.3-230.1-29.1-59.1-59.6-89.2-99.4-89.2z" fill="#559351"/><circle cx="1577.6" cy="678" fill="#441616" r="86.1"/><path d="m1663.7 678c0 47.5-38.6 86.1-86.1 86.1-26.7 0-50.6-12.2-66.4-31.3 14.9 12.2 33.9 19.6 54.7 19.6 47.5 0 86.1-38.6 86.1-86.1 0-20.8-7.4-39.8-19.6-54.7 19.1 15.7 31.3 39.6 31.3 66.4z" fill="#2d0f0f"/><circle cx="1543.3" cy="643.6" fill="#4c2525" r="16.8"/><path d="m1443.4 921.9c-4.2 0-8.1-2.7-9.5-6.8-5.4-16.3 3.4-43.6 27.2-83.4 16.5-27.8 34.1-51.2 34.8-52.2 3.3-4.4 9.6-5.3 14-2s5.3 9.6 2 14c-.2.2-17.7 23.6-33.7 50.5-28.3 47.5-26.5 63.1-25.3 66.7 1.7 5.2-1.1 10.9-6.3 12.6-1.1.4-2.2.6-3.2.6z" fill="#202020"/><path d="m1692.8 899.6c-2.3 0-4.6-.8-6.5-2.4-13.8-11.8-26.1-35.4-36.5-70-7.5-25-11.3-46.5-11.4-47.4-.9-5.4 2.7-10.6 8.1-11.6 5.4-.9 10.6 2.7 11.6 8.1 4 22.9 19.1 86.6 41.2 105.6 4.2 3.6 4.7 9.9 1.1 14.1-2 2.4-4.8 3.6-7.6 3.6z" fill="#202020"/><path d="m1337.2 572.7c-2.8 0-5.6-1.2-7.6-3.5-3.6-4.2-3.2-10.5 1-14.1 27.9-24.1 85.5-21.3 88-21.2 5.5.3 9.7 5 9.4 10.5s-5 9.7-10.5 9.4c-14.4-.8-55.7.7-73.8 16.3-1.8 1.8-4.2 2.6-6.5 2.6z" fill="#202020"/><path d="m1737.3 556c-5.3 0-9.7-4.2-10-9.5-.3-5.5 4-10.2 9.5-10.5.2 0 19.7-1 40.4-4.1 37.6-5.6 44-12.9 44.6-13.7 3.3-4.4 9.6-5.3 14-2s5.3 9.6 2 14c-4.7 6.2-15.7 15.2-57.8 21.5-21.7 3.2-41.4 4.2-42.2 4.3-.1 0-.3 0-.5 0z" fill="#202020"/><path d="m1484.6 475.9c0-22.2 80.4-22.2 80.4 0s-80.4 22.2-80.4 0z" fill="#fff"/><circle cx="1518.5" cy="475.9" fill="#202020" r="8.2"/><path d="m1669.9 475.9c0-22.2-80.4-22.2-80.4 0s80.4 22.2 80.4 0z" fill="#fff"/><circle cx="1622.9" cy="475.9" fill="#202020" r="8.2"/><path d="m1822.7 517.6c.1-.2 6-37.9 2-68.2-2.4-18-9.3-35.3-20.3-50.8-29.5-41.6-84.3-73.5-67.8-88.2 20.5-18.3 127.3 57.4 134.1 108.8.3 2.4.6 4.8.8 7.3 3.5 40.1-40.1 96.4-40.7 97.8" fill="#e0ef89"/><ellipse cx="1738.8" cy="314.4" fill="#7e8267" rx="5.6" ry="1.9" transform="matrix(.6074 -.7944 .7944 .6074 432.9394 1504.8026)"/><circle cx="1825.4" cy="522.1" fill="#7e8267" r="6.8"/><path d="m1787.9 325.7c-3.3-2.4-12.2 9.7-8.8 12.1s12.2-9.7 8.8-12.1z" fill="#fff"/><circle cx="1782.8" cy="332.8" fill="#202020" r="1.5"/><path d="m1767.6 353.6c-3.3-2.4 5.5-14.5 8.8-12.1s-5.4 14.5-8.8 12.1z" fill="#fff"/><circle cx="1771.4" cy="348.5" fill="#202020" r="1.5"/></svg>