<svg enable-background="new 0 0 1920 1080" viewBox="0 0 1920 1080" xmlns="http://www.w3.org/2000/svg"><path d="m0 0h1920v1080h-1920z" fill="#9ece9b"/><path d="m315 54h312.9v420.6h-312.9z" fill="#74b772"/><path d="m628 484.6h-313c-5.5 0-10-4.5-10-10v-420.6c0-5.5 4.5-10 10-10h313c5.5 0 10 4.5 10 10v420.6c0 5.5-4.5 10-10 10zm-303-20h293v-400.6h-293z" fill="#5e875c"/><path d="m420.6 218.7c-24.2-13-33.2-43.1-20.3-67.3s43.1-33.2 67.3-20.3c3.6 1.9 6.8 4.2 9.6 6.8-5.3-12-14.5-22.4-26.9-29.1-29.8-16-66.8-4.8-82.8 24.9s-4.8 66.8 24.9 82.8c12.4 6.7 26.2 8.6 39.1 6.4-3.7-.9-7.3-2.3-10.9-4.2z" fill="#5e875c"/><path d="m549.7 261c-2.7 0-5.5-.4-8.4-1.3-.2-.1-.5-.2-.7-.2-3.6-1.4-6.5-3.3-8.8-4.9-1-.7-1.9-1.3-2.7-1.7-2.9-.8-5.7-.3-8 1.4-5.5 4.1-13.3 3-17.4-2.5s-3-13.3 2.5-17.4c9.3-7 20.9-8.7 32-4.7.5.2.9.4 1.4.6 2.5 1.2 4.6 2.7 6.2 3.8 1.2.8 2.3 1.6 3.1 2 1.8.3 4.6-.5 8.4-2.6 6-3.3 13.6-1.1 16.8 5 3.3 6 1.1 13.6-5 16.8-2.8 1.6-10.3 5.7-19.4 5.7z" fill="#5e875c"/><path d="m400.7 355.1c-2.7 0-5.5-.4-8.4-1.3-.2-.1-.5-.2-.7-.2-3.6-1.4-6.5-3.3-8.8-4.9-1-.7-1.9-1.3-2.7-1.7-2.9-.8-5.7-.3-8 1.4-5.5 4.1-13.3 3-17.4-2.5s-3-13.3 2.5-17.4c9.3-7 20.9-8.7 32-4.7.5.2.9.4 1.4.6 2.5 1.2 4.6 2.7 6.2 3.8 1.2.8 2.3 1.6 3.1 2 1.8.3 4.6-.5 8.4-2.6 6-3.3 13.6-1.1 16.8 5 3.3 6 1.1 13.6-5 16.8-2.8 1.6-10.3 5.7-19.4 5.7z" fill="#5e875c"/><path d="m1920 0v635.5c-166.6 26.7-312.7 100-375.1 224.8-86.8 173.7-512.6-123.2-528.1-261.5-21.7-193.6 98.4-598.7 306.7-509.6 116.1 49.8 235.9-18.7 319.5-89.2z" fill="#74b772"/><path d="m1253.4 924.5c-16.6 0-30-13.4-30-30v-118.4c0-16.6 13.4-30 30-30s30 13.4 30 30v118.4c0 16.5-13.4 30-30 30z" fill="#202020"/><path d="m249.7 928.4c-16.6 0-30-13.4-30-30v-118.4c0-16.6 13.4-30 30-30s30 13.4 30 30v118.4c0 16.5-13.5 30-30 30z" fill="#202020"/><path d="m1137 965.3c-16.6 0-30-13.4-30-30v-118.3c0-16.6 13.4-30 30-30s30 13.4 30 30v118.4c0 16.5-13.4 29.9-30 29.9z" fill="#202020"/><path d="m139.8 965.3c-16.6 0-30-13.4-30-30v-118.3c0-16.6 13.4-30 30-30s30 13.4 30 30v118.4c0 16.5-13.4 29.9-30 29.9z" fill="#202020"/><path d="m1301.9 854.7h-1201.3c-37.3 0-78.3-31.8-67.5-67.5 11.2-37.2 30.2-67.5 67.5-67.5h1141.1l47.2-416.3c5.2-24.5 39.7-39.5 74.7-59.5 32.4-18.5 63.7 37.6 59.5 74.7l-54 476.2c-3.9 34.1-32.8 59.9-67.2 59.9z" fill="#6d2727"/><path d="m1271.1 791.5h-1160.5c-13.8 0-25-11.2-25-25s11.2-25 25-25h1138.3l52.5-430.2c1.6-13.7 12-23.5 25.7-21.9s40.5 14 38.9 27.7l-70.1 452.3c-1.4 12.6-12.1 22.1-24.8 22.1z" fill="#542020"/><path d="m146.1 766.5c-20 0-44.7-6.6-52.5-26.7-7.8-20.2-9.1-36.1-2.9-55.2 6.4-19.8 19.3-37 36.1-49.3l22.3-16.3c2.6-1.9 5.2-3.5 8-5 11.8-6.2 19-18.4 20-31.8.1-1.4.3-2.8.8-4.2 10-34.6 28.7-61.7 64.9-64.9h985.4c18 0 35.2 7.5 47.5 20.7s18.5 30.9 17.2 48.9l-6.8 93.4c-2.5 33.9-30.7 60.1-64.7 60.1h-1013l-24.2 17.8c-11.5 8.4-24.9 12.5-38.1 12.5z" fill="#fff"/><path d="m102.2 726c.7-3.4 17.7-83.2 81.7-100.3 20-18.9 17.9-43.7 17.9-44-.2-2.1.1-4.3 1-6.2.4-1.1 4.6-10.6 13.2-19.9 12.4-13.4 27.8-19.5 44.6-17.8 12.1 1.3 25 1.9 38.5 1.9l912.9-8.2c9.4-.1 18.3 4.7 23.1 12.9 1.2 2.1 2 4.2 2 6 0 7.2-5.8 30.3-12.9 30.3l-925-15.1c-14.4 0-28.3-.6-41.3-2-16.9-1.8-20.8 13.6-24 19.6 0 10.8-8.5 42-35.2 64.9-1.6 1.4-3.5 1.5-5.6 1.9-50.4 11.4-76.5 80.3-76.6 81-1.4 6.4-15.7 2-14.3-5z" fill="#ddd"/><path d="m1796.1 1001c-15.2 0-27.5-12.3-27.5-27.5v-176.8h-231.8v176.8c0 15.2-12.3 27.5-27.5 27.5s-27.5-12.3-27.5-27.5v-204.3c0-15.2 12.3-27.5 27.5-27.5h286.8c15.2 0 27.5 12.3 27.5 27.5v204.3c0 15.2-12.3 27.5-27.5 27.5z" fill="#202020"/><path d="m1819 766h-335c-15.2 0-27.5-12.3-27.5-27.5s12.3-27.5 27.5-27.5h335c15.2 0 27.5 12.3 27.5 27.5s-12.3 27.5-27.5 27.5z" fill="#202020"/><path d="m1677 533h75v83.9h-75z" fill="#fff"/><path d="m1749.3 739.4h-69.5c-9.7 0-17.7-7.4-18.6-17l-10.8-117.4c-1-11 7.6-20.4 18.6-20.4h91.2c11 0 19.6 9.5 18.6 20.4l-10.8 117.4c-1 9.6-9.1 17-18.7 17z" fill="#5b1f1f"/><path d="m1652.3 306.2h124.3c12.2 0 22.4 9.3 23.5 21.5l18.7 202.8c1.3 13.9-9.6 25.8-23.5 25.8h-161.7c-13.9 0-24.8-12-23.5-25.8l18.7-202.8c1.1-12.2 11.3-21.5 23.5-21.5z" fill="#c43e3b"/><path d="m1643.6 525.8c-.4 0-.8 0-1.2-.1-7.2-.7-12.4-7-11.8-14.2l16-173.7c.6-6.7 6.2-11.8 13-11.8h78.8c7.2 0 13 5.8 13 13s-5.8 19.3-13 19.3l-67-6.2-20.1 161.9c-.6 6.7-1.1 11.8-7.7 11.8z" fill="#9b3434"/><g fill="#74b772"><circle cx="929.1" cy="199.8" r="11.4"/><circle cx="842.8" cy="137.6" r="19.1"/><circle cx="850.3" cy="181.9" r="16"/><circle cx="1531" cy="1054.8" r="11.4"/><circle cx="1444.7" cy="992.6" r="19.1"/><circle cx="1452.2" cy="1036.8" r="16"/></g></svg>